<svg width="12px" height="12px" viewBox="0 0 12 12" version="1.1" xmlns="http://www.w3.org/2000/svg" xmlns:xlink="http://www.w3.org/1999/xlink">
    <g stroke="none" stroke-width="1" fill="none" fill-rule="evenodd">
        <g transform="translate(-881.000000, -388.000000)" fill="#AAAAAA">
            <path d="M892.715789,388.284211 C892.526315,388.094736 892.289475,388 892.005263,388 C891.721051,388 891.484211,388.094736 891.294737,388.284211 L887,392.578947 L882.705263,388.284211 C882.515789,388.094736 882.278949,388 881.994737,388 C881.710525,388 881.473685,388.094736 881.284211,388.284211 C881.094736,388.473685 881,388.710525 881,388.994737 C881,389.278949 881.094736,389.515789 881.284211,389.705263 L885.578947,394 L881.284211,398.294737 C881.094736,398.484211 881,398.721051 881,399.005263 C881,399.289475 881.094736,399.526315 881.284211,399.715789 C881.473685,399.905264 881.710525,400 881.994737,400 C882.278949,400 882.515789,399.905264 882.705263,399.715789 L887,395.421053 L891.294737,399.715789 C891.484211,399.905264 891.721051,400 892.005263,400 C892.289475,400 892.526315,399.905264 892.715789,399.715789 C892.905264,399.526315 893,399.289475 893,399.005263 C893,398.721051 892.905264,398.484211 892.715789,398.294737 L888.421053,394 L892.715789,389.705263 C892.905264,389.515789 893,389.278949 893,388.994737 C893,388.710525 892.905264,388.473685 892.715789,388.284211 L892.715789,388.284211 Z"></path>
        </g>
    </g>
</svg>